<svg width="243" height="34" viewBox="0 0 243 34" fill="none" xmlns="http://www.w3.org/2000/svg">
<path fill-rule="evenodd" clip-rule="evenodd" d="M23.2531 4.19067H1.6343C1.16061 4.19067 0.776611 4.57432 0.776611 5.04758V28.6125C0.776611 29.0858 1.16061 29.4694 1.6343 29.4694H23.2531C23.7268 29.4694 24.1108 29.0858 24.1108 28.6125V5.04758C24.1108 4.57432 23.7268 4.19067 23.2531 4.19067ZM5.41821 18.7078L19.4692 11.4493V13.5412L7.63812 19.5143V19.5647L19.4692 25.5127V27.6045L5.41821 20.3712V18.733V18.7078ZM5.41821 15.3808V13.4149L19.4692 6.0304V8.12225L5.41821 15.3808Z" fill="#F9595F"/>
<path d="M39.1397 10.5676V15.6551H45.4522V18.1801H39.1397V25.3301H35.7147V8.04258H46.6647L46.3022 10.5676H39.1397ZM52.5674 19.7176C52.6341 20.5426 52.8216 21.2134 53.1299 21.7301C53.4466 22.2467 53.8508 22.6259 54.3424 22.8676C54.8341 23.1092 55.3799 23.2301 55.9799 23.2301C56.6133 23.2301 57.2091 23.1301 57.7674 22.9301C58.3258 22.7301 58.8758 22.4509 59.4174 22.0926L60.7924 23.9801C60.1758 24.4967 59.4383 24.9134 58.5799 25.2301C57.7299 25.5467 56.7924 25.7051 55.7674 25.7051C54.3341 25.7051 53.1258 25.4092 52.1424 24.8176C51.1674 24.2259 50.4299 23.4051 49.9299 22.3551C49.4299 21.3051 49.1799 20.0967 49.1799 18.7301C49.1799 17.4134 49.4258 16.2259 49.9174 15.1676C50.4091 14.1092 51.1174 13.2717 52.0424 12.6551C52.9674 12.0301 54.0841 11.7176 55.3924 11.7176C56.6091 11.7176 57.6591 11.9842 58.5424 12.5176C59.4258 13.0509 60.1091 13.8176 60.5924 14.8176C61.0758 15.8092 61.3174 17.0051 61.3174 18.4051C61.3174 18.6301 61.3091 18.8592 61.2924 19.0926C61.2841 19.3259 61.2716 19.5342 61.2549 19.7176H52.5674ZM55.4049 14.0426C54.6049 14.0426 53.9466 14.3301 53.4299 14.9051C52.9216 15.4717 52.6216 16.3717 52.5299 17.6051H58.1049C58.0883 16.4884 57.8549 15.6176 57.4049 14.9926C56.9633 14.3592 56.2966 14.0426 55.4049 14.0426ZM64.8702 25.3301V23.0426H66.7327V14.3676H64.8702V12.0926H69.2452L69.8577 15.1301C70.341 14.0051 70.9493 13.1592 71.6827 12.5926C72.416 12.0176 73.3368 11.7301 74.4452 11.7301C74.8702 11.7301 75.2452 11.7634 75.5702 11.8301C75.9035 11.8967 76.2202 11.9842 76.5202 12.0926L75.5327 14.8676C75.2743 14.8009 75.0285 14.7509 74.7952 14.7176C74.5618 14.6759 74.2993 14.6551 74.0077 14.6551C73.091 14.6551 72.291 15.0134 71.6077 15.7301C70.9327 16.4384 70.4077 17.4009 70.0327 18.6176V23.0426H72.6702V25.3301H64.8702ZM73.7327 17.2551V13.7426L74.1827 12.0926H76.5202L75.9327 17.2551H73.7327ZM87.4104 6.45508L90.7104 6.80508V25.3301H87.7854L87.5854 23.7676C87.1771 24.3509 86.6646 24.8217 86.0479 25.1801C85.4312 25.5301 84.7146 25.7051 83.8979 25.7051C82.7812 25.7051 81.8562 25.4134 81.1229 24.8301C80.3979 24.2467 79.8562 23.4301 79.4979 22.3801C79.1479 21.3217 78.9729 20.0926 78.9729 18.6926C78.9729 17.3426 79.1812 16.1426 79.5979 15.0926C80.0146 14.0426 80.6146 13.2176 81.3979 12.6176C82.1896 12.0176 83.1271 11.7176 84.2104 11.7176C84.8604 11.7176 85.4521 11.8301 85.9854 12.0551C86.5187 12.2801 86.9937 12.6134 87.4104 13.0551V6.45508ZM85.0979 14.1801C84.2646 14.1801 83.6062 14.5426 83.1229 15.2676C82.6479 15.9842 82.4104 17.1301 82.4104 18.7051C82.4104 19.8134 82.5104 20.7009 82.7104 21.3676C82.9104 22.0259 83.1937 22.5009 83.5604 22.7926C83.9271 23.0842 84.3604 23.2301 84.8604 23.2301C85.4104 23.2301 85.8937 23.0676 86.3104 22.7426C86.7354 22.4092 87.1021 21.9967 87.4104 21.5051V15.4801C87.1021 15.0717 86.7562 14.7551 86.3729 14.5301C85.9979 14.2967 85.5729 14.1801 85.0979 14.1801ZM100.226 11.7176C101.542 11.7176 102.659 12.0051 103.576 12.5801C104.492 13.1551 105.188 13.9676 105.663 15.0176C106.146 16.0592 106.388 17.2801 106.388 18.6801C106.388 20.1134 106.146 21.3551 105.663 22.4051C105.18 23.4551 104.48 24.2676 103.563 24.8426C102.646 25.4176 101.53 25.7051 100.213 25.7051C98.9048 25.7051 97.7881 25.4259 96.8631 24.8676C95.9465 24.3009 95.2465 23.4967 94.7631 22.4551C94.2798 21.4051 94.0381 20.1551 94.0381 18.7051C94.0381 17.3217 94.2798 16.1051 94.7631 15.0551C95.2465 14.0051 95.9506 13.1884 96.8756 12.6051C97.8006 12.0134 98.9173 11.7176 100.226 11.7176ZM100.226 14.2051C99.3006 14.2051 98.609 14.5676 98.1506 15.2926C97.7006 16.0176 97.4756 17.1551 97.4756 18.7051C97.4756 20.2717 97.7006 21.4176 98.1506 22.1426C98.6006 22.8592 99.2881 23.2176 100.213 23.2176C101.138 23.2176 101.826 22.8592 102.276 22.1426C102.726 21.4176 102.951 20.2634 102.951 18.6801C102.951 17.1384 102.726 16.0092 102.276 15.2926C101.826 14.5676 101.142 14.2051 100.226 14.2051ZM113.016 12.0926V21.2676C113.016 21.9842 113.158 22.4884 113.441 22.7801C113.724 23.0717 114.137 23.2176 114.678 23.2176C115.195 23.2176 115.699 23.0634 116.191 22.7551C116.683 22.4384 117.083 22.0384 117.391 21.5551V12.0926H120.691V25.3301H117.816L117.641 23.7051C117.166 24.3551 116.558 24.8509 115.816 25.1926C115.074 25.5342 114.308 25.7051 113.516 25.7051C112.241 25.7051 111.287 25.3467 110.653 24.6301C110.028 23.9051 109.716 22.9176 109.716 21.6676V12.0926H113.016ZM129.744 23.2676C130.519 23.2676 131.139 23.1342 131.606 22.8676C132.081 22.5926 132.319 22.2092 132.319 21.7176C132.319 21.3926 132.239 21.1176 132.081 20.8926C131.931 20.6676 131.631 20.4592 131.181 20.2676C130.731 20.0676 130.056 19.8467 129.156 19.6051C128.306 19.3884 127.56 19.1217 126.919 18.8051C126.285 18.4801 125.789 18.0634 125.431 17.5551C125.081 17.0467 124.906 16.4051 124.906 15.6301C124.906 14.8551 125.123 14.1759 125.556 13.5926C125.989 13.0009 126.614 12.5426 127.431 12.2176C128.256 11.8842 129.248 11.7176 130.406 11.7176C131.539 11.7176 132.531 11.8676 133.381 12.1676C134.231 12.4592 134.96 12.8259 135.569 13.2676L134.219 15.2801C133.685 14.9384 133.106 14.6634 132.481 14.4551C131.864 14.2384 131.198 14.1301 130.481 14.1301C129.706 14.1301 129.139 14.2426 128.781 14.4676C128.431 14.6926 128.256 15.0051 128.256 15.4051C128.256 15.6884 128.344 15.9301 128.519 16.1301C128.702 16.3217 129.027 16.5092 129.494 16.6926C129.969 16.8676 130.644 17.0801 131.519 17.3301C132.377 17.5634 133.123 17.8384 133.756 18.1551C134.398 18.4717 134.894 18.8926 135.244 19.4176C135.594 19.9426 135.769 20.6301 135.769 21.4801C135.769 22.4384 135.489 23.2301 134.931 23.8551C134.373 24.4801 133.635 24.9467 132.719 25.2551C131.81 25.5551 130.823 25.7051 129.756 25.7051C128.506 25.7051 127.414 25.5259 126.481 25.1676C125.548 24.8092 124.756 24.3467 124.106 23.7801L125.819 21.8551C126.335 22.2634 126.923 22.6009 127.581 22.8676C128.248 23.1342 128.969 23.2676 129.744 23.2676ZM165.937 8.11758L166.912 25.3301H164.824L164.287 16.3426C164.262 15.7342 164.237 15.1176 164.212 14.4926C164.187 13.8676 164.17 13.2676 164.162 12.6926C164.153 12.1176 164.149 11.6051 164.149 11.1551C164.149 10.7051 164.149 10.3551 164.149 10.1051L161.249 22.2426H159.074L155.962 10.1051C155.97 10.3467 155.978 10.7051 155.987 11.1801C155.995 11.6467 155.999 12.1759 155.999 12.7676C156.007 13.3592 156.003 13.9676 155.987 14.5926C155.978 15.2092 155.962 15.7842 155.937 16.3176L155.474 25.3301H153.437L154.412 8.11758H157.437L160.224 19.9051L162.887 8.11758H165.937ZM176.839 12.1676V23.6676H180.552V25.3301H170.677V23.6676H174.739V13.8301H170.802V12.1676H176.839ZM175.164 6.00508C175.631 6.00508 176.002 6.14674 176.277 6.43008C176.56 6.71341 176.702 7.05924 176.702 7.46758C176.702 7.89258 176.56 8.25091 176.277 8.54258C176.002 8.82591 175.631 8.96758 175.164 8.96758C174.723 8.96758 174.36 8.82591 174.077 8.54258C173.793 8.25091 173.652 7.89258 173.652 7.46758C173.652 7.05924 173.793 6.71341 174.077 6.43008C174.36 6.14674 174.723 6.00508 175.164 6.00508ZM196.192 12.1676L190.267 18.0926L196.88 25.3301H194.117L187.642 18.1426L193.467 12.1676H196.192ZM187.405 6.60508V25.3301H185.305V6.86758L187.405 6.60508ZM208.032 6.60508L210.132 6.86758V25.3301H208.295L208.095 23.5926C207.603 24.2926 207.036 24.8051 206.395 25.1301C205.761 25.4551 205.082 25.6176 204.357 25.6176C203.216 25.6176 202.274 25.3301 201.532 24.7551C200.791 24.1801 200.241 23.3801 199.882 22.3551C199.524 21.3217 199.345 20.1259 199.345 18.7676C199.345 17.4509 199.549 16.2759 199.957 15.2426C200.366 14.2009 200.953 13.3842 201.72 12.7926C202.495 12.1926 203.424 11.8926 204.507 11.8926C205.266 11.8926 205.932 12.0259 206.507 12.2926C207.082 12.5509 207.591 12.9342 208.032 13.4426V6.60508ZM205.057 13.5801C203.957 13.5801 203.111 14.0092 202.52 14.8676C201.928 15.7259 201.632 17.0259 201.632 18.7676C201.632 19.9009 201.753 20.8509 201.995 21.6176C202.236 22.3842 202.591 22.9592 203.057 23.3426C203.532 23.7259 204.111 23.9176 204.795 23.9176C205.545 23.9176 206.182 23.7051 206.707 23.2801C207.241 22.8551 207.682 22.3759 208.032 21.8426V15.2676C207.674 14.7342 207.241 14.3217 206.732 14.0301C206.224 13.7301 205.666 13.5801 205.057 13.5801ZM224.573 22.4551C224.573 22.9801 224.66 23.3634 224.835 23.6051C225.01 23.8467 225.281 24.0259 225.648 24.1426L225.135 25.6176C224.568 25.5426 224.073 25.3634 223.648 25.0801C223.223 24.7884 222.914 24.3509 222.723 23.7676C222.248 24.3759 221.656 24.8384 220.948 25.1551C220.239 25.4634 219.456 25.6176 218.598 25.6176C217.281 25.6176 216.243 25.2467 215.485 24.5051C214.727 23.7634 214.348 22.7801 214.348 21.5551C214.348 20.1967 214.877 19.1551 215.935 18.4301C216.993 17.7051 218.523 17.3426 220.523 17.3426H222.46V16.2426C222.46 15.2926 222.181 14.6217 221.623 14.2301C221.073 13.8301 220.306 13.6301 219.323 13.6301C218.889 13.6301 218.381 13.6842 217.798 13.7926C217.214 13.8926 216.581 14.0634 215.898 14.3051L215.348 12.7176C216.156 12.4176 216.914 12.2051 217.623 12.0801C218.331 11.9551 219.006 11.8926 219.648 11.8926C221.289 11.8926 222.518 12.2759 223.335 13.0426C224.16 13.8009 224.573 14.8342 224.573 16.1426V22.4551ZM219.135 24.0176C219.785 24.0176 220.406 23.8551 220.998 23.5301C221.589 23.1967 222.077 22.7384 222.46 22.1551V18.7676H220.56C219.11 18.7676 218.085 19.0176 217.485 19.5176C216.893 20.0176 216.598 20.6884 216.598 21.5301C216.598 22.3467 216.806 22.9676 217.223 23.3926C217.648 23.8092 218.285 24.0176 219.135 24.0176ZM238.013 6.60508L240.113 6.86758V25.3301H238.275L238.075 23.5926C237.584 24.2926 237.017 24.8051 236.375 25.1301C235.742 25.4551 235.063 25.6176 234.338 25.6176C233.196 25.6176 232.254 25.3301 231.513 24.7551C230.771 24.1801 230.221 23.3801 229.863 22.3551C229.504 21.3217 229.325 20.1259 229.325 18.7676C229.325 17.4509 229.529 16.2759 229.938 15.2426C230.346 14.2009 230.934 13.3842 231.7 12.7926C232.475 12.1926 233.404 11.8926 234.488 11.8926C235.246 11.8926 235.913 12.0259 236.488 12.2926C237.063 12.5509 237.571 12.9342 238.013 13.4426V6.60508ZM235.038 13.5801C233.938 13.5801 233.092 14.0092 232.5 14.8676C231.909 15.7259 231.613 17.0259 231.613 18.7676C231.613 19.9009 231.734 20.8509 231.975 21.6176C232.217 22.3842 232.571 22.9592 233.038 23.3426C233.513 23.7259 234.092 23.9176 234.775 23.9176C235.525 23.9176 236.163 23.7051 236.688 23.2801C237.221 22.8551 237.663 22.3759 238.013 21.8426V15.2676C237.654 14.7342 237.221 14.3217 236.713 14.0301C236.204 13.7301 235.646 13.5801 235.038 13.5801Z" fill="#F9595F"/>
</svg>
