<svg width="513" height="453" viewBox="0 0 513 453" fill="none" xmlns="http://www.w3.org/2000/svg">
<path d="M376.493 0.327393C348.71 0.327393 323.238 9.13139 300.786 26.4954C279.261 43.1424 264.93 64.3454 256.493 79.7634C248.056 64.3444 233.725 43.1424 212.2 26.4954C189.748 9.13139 164.276 0.327393 136.493 0.327393C58.9607 0.327393 0.492676 63.7444 0.492676 147.841C0.492676 238.695 73.4357 300.856 183.862 394.959C202.614 410.94 223.869 429.054 245.961 448.373C248.873 450.923 252.613 452.327 256.493 452.327C260.373 452.327 264.113 450.923 267.025 448.374C289.119 429.052 310.373 410.939 329.136 394.949C439.55 300.856 512.493 238.695 512.493 147.841C512.493 63.7444 454.025 0.327393 376.493 0.327393Z" fill="#F9595F"/>
</svg>
